<?xml version="1.0" encoding="utf-8"?>
<!-- Generator: Adobe Illustrator 27.3.1, SVG Export Plug-In . SVG Version: 6.00 Build 0)  -->
<svg version="1.1" id="Camada_1" xmlns="http://www.w3.org/2000/svg" xmlns:xlink="http://www.w3.org/1999/xlink" x="0px" y="0px"
	 viewBox="0 0 400 400" style="enable-background:new 0 0 400 400;" xml:space="preserve">
<style type="text/css">
	.st0{fill:#010202;}
</style>
<g>
	<g>
		<path class="st0" d="M327.8,317.9L71.7,61.8l-0.1-0.1c-5.8-5.8-15.2-5.7-21,0.1s-5.7,15.2,0.1,21l22.4,22.4
			c-27.2,18.6-50.6,42.3-69,69.6c-6.1,9.1-6.1,21,0,30C51,274.3,125.4,315,199.8,314.5c24.1,0.1,48-3.9,70.8-11.9l36.3,36.3
			c5.9,5.7,15.3,5.6,21-0.3C333.4,332.8,333.4,323.7,327.8,317.9L327.8,317.9z M199.8,274.1c-46.6,0-84.3-37.8-84.3-84.3
			c0-12,2.6-23.8,7.5-34.7l23.4,23.4c-6.3,29.5,12.6,58.4,42,64.7c7.5,1.6,15.2,1.6,22.7,0l23.4,23.4
			C223.6,271.6,211.7,274.1,199.8,274.1L199.8,274.1z M395.4,174.8C348.5,105.4,274.1,64.7,199.8,65.2c-24.1-0.1-48,3.9-70.8,11.9
			l36,36c42.4-19.2,92.4-0.4,111.6,42c10,22.1,10,47.4,0,69.5l49.9,49.9c27.2-18.6,50.6-42.2,69-69.6
			C401.5,195.8,401.5,183.9,395.4,174.8z"/>
		<path class="st0" d="M199.8,135.3c-3.8,0-7.6,0.4-11.3,1.2l64.7,64.7c6.3-29.5-12.6-58.4-42-64.7
			C207.4,135.7,203.6,135.3,199.8,135.3z"/>
	</g>
</g>
</svg>
