<?xml version="1.0" encoding="utf-8"?>
<!-- Generator: Adobe Illustrator 27.3.1, SVG Export Plug-In . SVG Version: 6.00 Build 0)  -->
<svg version="1.1" id="Camada_1" xmlns="http://www.w3.org/2000/svg" xmlns:xlink="http://www.w3.org/1999/xlink" x="0px" y="0px"
	 viewBox="0 0 400 400" style="enable-background:new 0 0 400 400;" xml:space="preserve">
<style type="text/css">
	.st0{fill:#010202;}
</style>
<g>
	<path class="st0" d="M200,80.8c-76.4,0-145.7,41.8-196.9,109.7c-4.2,5.6-4.2,13.3,0,18.9c51.1,68,120.4,109.8,196.9,109.8
		s145.7-41.8,196.9-109.7c4.2-5.6,4.2-13.3,0-18.9C345.7,122.6,276.4,80.8,200,80.8L200,80.8z M205.5,284
		c-50.7,3.2-92.6-38.6-89.4-89.4c2.6-41.9,36.6-75.9,78.5-78.5c50.7-3.2,92.6,38.6,89.4,89.4C281.3,247.3,247.3,281.3,205.5,284
		L205.5,284z M202.9,245.2c-27.3,1.7-49.9-20.8-48.1-48.1c1.4-22.6,19.7-40.8,42.3-42.3c27.3-1.7,49.9,20.8,48.1,48.1
		C243.8,225.5,225.4,243.8,202.9,245.2L202.9,245.2z"/>
</g>
</svg>
